<svg width="282" height="90" viewBox="0 0 282 90" fill="none" xmlns="http://www.w3.org/2000/svg">
<g clip-path="url(#clip0_42_3)">
<mask id="mask0_42_3" style="mask-type:luminance" maskUnits="userSpaceOnUse" x="232" y="14" width="50" height="50">
<path d="M269.5 14H244.5C237.596 14 232 19.5964 232 26.5V51.5C232 58.4036 237.596 64 244.5 64H269.5C276.404 64 282 58.4036 282 51.5V26.5C282 19.5964 276.404 14 269.5 14Z" fill="white"/>
</mask>
<g mask="url(#mask0_42_3)">
<path d="M269.5 14H244.5C237.596 14 232 19.5964 232 26.5V51.5C232 58.4036 237.596 64 244.5 64H269.5C276.404 64 282 58.4036 282 51.5V26.5C282 19.5964 276.404 14 269.5 14Z" fill="#5EE9B5"/>
<path d="M242 33V51H252.714V43C252.714 40.7908 254.633 39 257 39C259.367 39 261.286 40.7908 261.286 43V51H272V33L257 21L242 33Z" fill="white"/>
<path d="M237.771 34.8334C236.875 34.8334 236.167 34.1251 236.167 33.2292V28.4167C236.167 22.7709 240.771 18.1667 246.417 18.1667H251.229C252.125 18.1667 252.833 18.8751 252.833 19.7709C252.833 20.6667 252.125 21.3751 251.229 21.3751H246.417C242.521 21.3751 239.375 24.5417 239.375 28.4167V33.2292C239.375 34.1251 238.646 34.8334 237.771 34.8334Z" fill="white"/>
<path d="M276.229 34.8334C275.354 34.8334 274.625 34.1251 274.625 33.2292V28.4167C274.625 24.5209 271.458 21.3751 267.583 21.3751H262.771C261.875 21.3751 261.167 20.6459 261.167 19.7709C261.167 18.8959 261.875 18.1667 262.771 18.1667H267.583C273.229 18.1667 277.833 22.7709 277.833 28.4167V33.2292C277.833 34.1251 277.125 34.8334 276.229 34.8334Z" fill="white"/>
<path d="M267.587 59.8327H264.691C263.816 59.8327 263.087 59.1243 263.087 58.2285C263.087 57.3535 263.796 56.6243 264.691 56.6243H267.587C271.483 56.6243 274.629 53.4577 274.629 49.5827V46.7077C274.629 45.8327 275.337 45.1035 276.233 45.1035C277.108 45.1035 277.837 45.8118 277.837 46.7077V49.5827C277.837 55.2285 273.233 59.8327 267.587 59.8327Z" fill="white"/>
<path d="M251.229 59.8334H246.417C240.771 59.8334 236.167 55.2292 236.167 49.5834V44.7709C236.167 43.8751 236.875 43.1667 237.771 43.1667C238.667 43.1667 239.375 43.8751 239.375 44.7709V49.5834C239.375 53.4792 242.542 56.6251 246.417 56.6251H251.229C252.104 56.6251 252.833 57.3334 252.833 58.2292C252.833 59.1251 252.125 59.8334 251.229 59.8334Z" fill="white"/>
<path d="M270.457 37.397H267.624H246.374H243.541C242.645 37.397 241.936 38.1262 241.936 39.0012C241.936 39.8762 242.645 40.6053 243.541 40.6053H246.374H267.624H270.457C271.353 40.6053 272.061 39.8762 272.061 39.0012C272.061 38.1262 271.353 37.397 270.457 37.397Z" fill="white"/>
</g>
</g>
<path d="M16.5473 64.75C13.9139 64.75 11.7056 64.125 9.92227 62.875C8.13893 61.625 6.79727 59.925 5.89727 57.775C4.99727 55.6083 4.54727 53.1833 4.54727 50.5C4.54727 47.7833 4.99727 45.35 5.89727 43.2C6.79727 41.05 8.11393 39.3583 9.84727 38.125C11.5973 36.875 13.7556 36.25 16.3223 36.25C18.8723 36.25 21.0806 36.875 22.9473 38.125C24.8306 39.3583 26.2889 41.05 27.3223 43.2C28.3556 45.3333 28.8723 47.7667 28.8723 50.5C28.8723 53.2 28.3639 55.625 27.3473 57.775C26.3306 59.925 24.8973 61.625 23.0473 62.875C21.1973 64.125 19.0306 64.75 16.5473 64.75ZM3.52227 76V37H8.84727V55.95H9.59727V76H3.52227ZM15.6223 59.35C17.1889 59.35 18.4806 58.9583 19.4973 58.175C20.5139 57.3917 21.2639 56.3333 21.7473 55C22.2473 53.65 22.4973 52.15 22.4973 50.5C22.4973 48.8667 22.2473 47.3833 21.7473 46.05C21.2473 44.7 20.4723 43.6333 19.4223 42.85C18.3723 42.05 17.0389 41.65 15.4223 41.65C13.8889 41.65 12.6389 42.025 11.6723 42.775C10.7056 43.5083 9.98893 44.5417 9.52227 45.875C9.07227 47.1917 8.84727 48.7333 8.84727 50.5C8.84727 52.25 9.07227 53.7917 9.52227 55.125C9.98893 56.4583 10.7139 57.5 11.6973 58.25C12.6973 58.9833 14.0056 59.35 15.6223 59.35ZM34.3828 64V37H39.7078V43.575L39.0578 42.725C39.3911 41.825 39.8328 41.0083 40.3828 40.275C40.9495 39.525 41.6245 38.9083 42.4078 38.425C43.0745 37.975 43.8078 37.625 44.6078 37.375C45.4245 37.1083 46.2578 36.95 47.1078 36.9C47.9578 36.8333 48.7828 36.8667 49.5828 37V42.625C48.7828 42.3917 47.8578 42.3167 46.8078 42.4C45.7745 42.4833 44.8411 42.775 44.0078 43.275C43.1745 43.725 42.4911 44.3 41.9578 45C41.4411 45.7 41.0578 46.5 40.8078 47.4C40.5578 48.2833 40.4328 49.2417 40.4328 50.275V64H34.3828ZM65.7902 64.75C63.0902 64.75 60.7319 64.1417 58.7152 62.925C56.6986 61.7083 55.1319 60.0333 54.0152 57.9C52.9152 55.75 52.3652 53.2833 52.3652 50.5C52.3652 47.6667 52.9319 45.1833 54.0652 43.05C55.1986 40.9167 56.7736 39.25 58.7902 38.05C60.8069 36.85 63.1402 36.25 65.7902 36.25C68.5069 36.25 70.8736 36.8583 72.8902 38.075C74.9069 39.2917 76.4736 40.975 77.5902 43.125C78.7069 45.2583 79.2652 47.7167 79.2652 50.5C79.2652 53.3 78.6986 55.775 77.5652 57.925C76.4486 60.0583 74.8819 61.7333 72.8652 62.95C70.8486 64.15 68.4902 64.75 65.7902 64.75ZM65.7902 59.1C68.1902 59.1 69.9736 58.3 71.1402 56.7C72.3069 55.1 72.8902 53.0333 72.8902 50.5C72.8902 47.8833 72.2986 45.8 71.1152 44.25C69.9319 42.6833 68.1569 41.9 65.7902 41.9C64.1736 41.9 62.8402 42.2667 61.7902 43C60.7569 43.7167 59.9902 44.725 59.4902 46.025C58.9902 47.3083 58.7402 48.8 58.7402 50.5C58.7402 53.1167 59.3319 55.2083 60.5152 56.775C61.7152 58.325 63.4736 59.1 65.7902 59.1ZM97.7484 64.75C95.1151 64.75 92.9068 64.125 91.1234 62.875C89.3401 61.625 87.9984 59.925 87.0984 57.775C86.1984 55.6083 85.7484 53.1833 85.7484 50.5C85.7484 47.7833 86.1984 45.35 87.0984 43.2C87.9984 41.05 89.3151 39.3583 91.0484 38.125C92.7984 36.875 94.9568 36.25 97.5234 36.25C100.073 36.25 102.282 36.875 104.148 38.125C106.032 39.3583 107.49 41.05 108.523 43.2C109.557 45.3333 110.073 47.7667 110.073 50.5C110.073 53.2 109.565 55.625 108.548 57.775C107.532 59.925 106.098 61.625 104.248 62.875C102.398 64.125 100.232 64.75 97.7484 64.75ZM84.7234 76V37H90.0484V55.95H90.7984V76H84.7234ZM96.8234 59.35C98.3901 59.35 99.6818 58.9583 100.698 58.175C101.715 57.3917 102.465 56.3333 102.948 55C103.448 53.65 103.698 52.15 103.698 50.5C103.698 48.8667 103.448 47.3833 102.948 46.05C102.448 44.7 101.673 43.6333 100.623 42.85C99.5734 42.05 98.2401 41.65 96.6234 41.65C95.0901 41.65 93.8401 42.025 92.8734 42.775C91.9068 43.5083 91.1901 44.5417 90.7234 45.875C90.2734 47.1917 90.0484 48.7333 90.0484 50.5C90.0484 52.25 90.2734 53.7917 90.7234 55.125C91.1901 56.4583 91.9151 57.5 92.8984 58.25C93.8984 58.9833 95.2068 59.35 96.8234 59.35ZM125.374 64.75C122.041 64.75 119.333 64 117.249 62.5C115.166 61 113.899 58.8917 113.449 56.175L119.599 55.225C119.916 56.5583 120.616 57.6083 121.699 58.375C122.783 59.1417 124.149 59.525 125.799 59.525C127.249 59.525 128.366 59.2417 129.149 58.675C129.949 58.0917 130.349 57.3 130.349 56.3C130.349 55.6833 130.199 55.1917 129.899 54.825C129.616 54.4417 128.983 54.075 127.999 53.725C127.016 53.375 125.508 52.9333 123.474 52.4C121.208 51.8 119.408 51.1583 118.074 50.475C116.741 49.775 115.783 48.95 115.199 48C114.616 47.05 114.324 45.9 114.324 44.55C114.324 42.8667 114.766 41.4 115.649 40.15C116.533 38.9 117.766 37.9417 119.349 37.275C120.933 36.5917 122.799 36.25 124.949 36.25C127.049 36.25 128.908 36.575 130.524 37.225C132.158 37.875 133.474 38.8 134.474 40C135.474 41.2 136.091 42.6083 136.324 44.225L130.174 45.325C130.024 44.175 129.499 43.2667 128.599 42.6C127.716 41.9333 126.533 41.5583 125.049 41.475C123.633 41.3917 122.491 41.6083 121.624 42.125C120.758 42.625 120.324 43.3333 120.324 44.25C120.324 44.7667 120.499 45.2083 120.849 45.575C121.199 45.9417 121.899 46.3083 122.949 46.675C124.016 47.0417 125.599 47.4917 127.699 48.025C129.849 48.575 131.566 49.2083 132.849 49.925C134.149 50.625 135.083 51.4667 135.649 52.45C136.233 53.4333 136.524 54.625 136.524 56.025C136.524 58.7417 135.533 60.875 133.549 62.425C131.583 63.975 128.858 64.75 125.374 64.75ZM153.725 64.75C150.942 64.75 148.567 64.1333 146.6 62.9C144.633 61.65 143.125 59.95 142.075 57.8C141.042 55.65 140.517 53.2167 140.5 50.5C140.517 47.7333 141.058 45.2833 142.125 43.15C143.208 41 144.742 39.3167 146.725 38.1C148.708 36.8667 151.067 36.25 153.8 36.25C156.867 36.25 159.458 37.025 161.575 38.575C163.708 40.1083 165.1 42.2083 165.75 44.875L159.75 46.5C159.283 45.05 158.508 43.925 157.425 43.125C156.342 42.3083 155.108 41.9 153.725 41.9C152.158 41.9 150.867 42.275 149.85 43.025C148.833 43.7583 148.083 44.775 147.6 46.075C147.117 47.375 146.875 48.85 146.875 50.5C146.875 53.0667 147.45 55.1417 148.6 56.725C149.75 58.3083 151.458 59.1 153.725 59.1C155.325 59.1 156.583 58.7333 157.5 58C158.433 57.2667 159.133 56.2083 159.6 54.825L165.75 56.2C164.917 58.95 163.458 61.0667 161.375 62.55C159.292 64.0167 156.742 64.75 153.725 64.75ZM177.87 64.75C175.92 64.75 174.27 64.3833 172.92 63.65C171.57 62.9 170.545 61.9083 169.845 60.675C169.162 59.4417 168.82 58.0833 168.82 56.6C168.82 55.3 169.037 54.1333 169.47 53.1C169.904 52.05 170.57 51.15 171.47 50.4C172.37 49.6333 173.537 49.0083 174.97 48.525C176.054 48.175 177.32 47.8583 178.77 47.575C180.237 47.2917 181.82 47.0333 183.52 46.8C185.237 46.55 187.029 46.2833 188.895 46L186.745 47.225C186.762 45.3583 186.345 43.9833 185.495 43.1C184.645 42.2167 183.212 41.775 181.195 41.775C179.979 41.775 178.804 42.0583 177.67 42.625C176.537 43.1917 175.745 44.1667 175.295 45.55L169.795 43.825C170.462 41.5417 171.729 39.7083 173.595 38.325C175.479 36.9417 178.012 36.25 181.195 36.25C183.595 36.25 185.704 36.6417 187.52 37.425C189.354 38.2083 190.712 39.4917 191.595 41.275C192.079 42.225 192.37 43.2 192.47 44.2C192.57 45.1833 192.62 46.2583 192.62 47.425V64H187.345V58.15L188.22 59.1C187.004 61.05 185.579 62.4833 183.945 63.4C182.329 64.3 180.304 64.75 177.87 64.75ZM179.07 59.95C180.437 59.95 181.604 59.7083 182.57 59.225C183.537 58.7417 184.304 58.15 184.87 57.45C185.454 56.75 185.845 56.0917 186.045 55.475C186.362 54.7083 186.537 53.8333 186.57 52.85C186.62 51.85 186.645 51.0417 186.645 50.425L188.495 50.975C186.679 51.2583 185.12 51.5083 183.82 51.725C182.52 51.9417 181.404 52.15 180.47 52.35C179.537 52.5333 178.712 52.7417 177.995 52.975C177.295 53.225 176.704 53.5167 176.22 53.85C175.737 54.1833 175.362 54.5667 175.095 55C174.845 55.4333 174.72 55.9417 174.72 56.525C174.72 57.1917 174.887 57.7833 175.22 58.3C175.554 58.8 176.037 59.2 176.67 59.5C177.32 59.8 178.12 59.95 179.07 59.95ZM217.804 64V51C217.804 50.15 217.746 49.2083 217.629 48.175C217.512 47.1417 217.237 46.15 216.804 45.2C216.387 44.2333 215.754 43.4417 214.904 42.825C214.071 42.2083 212.937 41.9 211.504 41.9C210.737 41.9 209.979 42.025 209.229 42.275C208.479 42.525 207.796 42.9583 207.179 43.575C206.579 44.175 206.096 45.0083 205.729 46.075C205.362 47.125 205.179 48.475 205.179 50.125L201.604 48.6C201.604 46.3 202.046 44.2167 202.929 42.35C203.829 40.4833 205.146 39 206.879 37.9C208.612 36.7833 210.746 36.225 213.279 36.225C215.279 36.225 216.929 36.5583 218.229 37.225C219.529 37.8917 220.562 38.7417 221.329 39.775C222.096 40.8083 222.662 41.9083 223.029 43.075C223.396 44.2417 223.629 45.35 223.729 46.4C223.846 47.4333 223.904 48.275 223.904 48.925V64H217.804ZM199.079 64V37H204.454V45.375H205.179V64H199.079Z" fill="black"/>
<defs>
<clipPath id="clip0_42_3">
<rect width="50" height="50" fill="white" transform="translate(232 14)"/>
</clipPath>
</defs>
</svg>
